<svg id="Layer_1" data-name="Layer 1" xmlns="http://www.w3.org/2000/svg" viewBox="0 0 400 178"><defs><style>.cls-1,.cls-2{fill:#fff;}.cls-2{font-size:21.1px;font-family:LemonTuesday, Lemon Tuesday;}.cls-3{letter-spacing:-0.05em;}.cls-4{fill:#cd6799;}.cls-5{fill:#61dafb;}.cls-6{fill:#953dac;}.cls-7{fill:#68217a;}.cls-8{fill:#822c98;}</style></defs><circle class="cls-1" cx="172.76" cy="34.11" r="3.5"/><circle class="cls-1" cx="231.6" cy="14.82" r="3.5"/><path class="cls-1" d="M201.41,11.32,225.1,49.58a3.46,3.46,0,0,0,3,1.65h6.45L210.82,13a3.5,3.5,0,0,0-3-1.65Z"/><path class="cls-1" d="M192.66,11.32a3.49,3.49,0,0,0-3.49,3.49l0,19.07v.79c0,6.53-3.72,10.16-10.33,10.16l-.76,0v6.41h.76c10.73,0,17.4-6.14,17.4-16.76V11.32Z"/><text class="cls-2" transform="translate(103.94 90.8)">rig<tspan class="cls-3" x="25.64" y="0">h</tspan><tspan x="34.48" y="0">t now working on :</tspan></text><path class="cls-4" d="M165.32,144.38a7.5,7.5,0,0,0-3.3.76,6.9,6.9,0,0,1-.74-1.71,4.81,4.81,0,0,1-.06-1.44,14,14,0,0,1,.43-1.55c0-.06-.08-.38-.81-.38s-1.37.14-1.44.33a8.09,8.09,0,0,0-.3,1.08,26,26,0,0,1-2.23,4.29,4.69,4.69,0,0,1-.51-1.25,4.5,4.5,0,0,1-.07-1.44,11.51,11.51,0,0,1,.44-1.55c0-.07-.08-.38-.82-.38s-1.36.13-1.43.33-.16.64-.31,1.08-1.93,4.41-2.39,5.43c-.24.53-.45,1-.6,1.23h0a.15.15,0,0,1,0,.06l-.2.38h0s-.21.35-.26.35a2.15,2.15,0,0,1,0-1.13c.27-1.38.9-3.52.89-3.6s.12-.41-.41-.6a.67.67,0,0,0-.75.12c-.05,0-.08.12-.08.12s.58-2.41-1.11-2.41c-1.05,0-2.5,1.15-3.22,2.19L143.59,146l-1.18.64-.08-.09c-2-2.17-5.8-3.71-5.64-6.63.05-1.06.42-3.86,7.23-7.25,5.6-2.76,10.06-2,10.83-.3,1.1,2.42-2.39,6.92-8.18,7.57a4.36,4.36,0,0,1-3.66-.92c-.3-.34-.35-.36-.46-.29s-.07.4,0,.57a3.43,3.43,0,0,0,2.09,1.65,11.18,11.18,0,0,0,6.78-.68c3.51-1.35,6.25-5.13,5.45-8.29s-6.13-4.26-11.17-2.47a25.42,25.42,0,0,0-8.58,4.92c-2.77,2.6-3.21,4.85-3,5.8.65,3.35,5.27,5.53,7.12,7.15l-.25.14c-.93.46-4.45,2.3-5.33,4.25-1,2.21.16,3.79.92,4a5.69,5.69,0,0,0,6.13-2.49,6.16,6.16,0,0,0,.55-5.66l0,0,.72-.42,1.34-.76a9.06,9.06,0,0,0-.47,2.43,5.06,5.06,0,0,0,1.08,3.51,1.21,1.21,0,0,0,.88.29c.79,0,1.14-.66,1.53-1.43.48-.94.91-2,.91-2s-.53,3,.93,3c.53,0,1.34-1,1.34-1h0l0-.07a1.1,1.1,0,0,1,.09-.14h0s.66-1.22,1.37-2.62c.92-1.81,1.8-4.07,1.8-4.07a11.13,11.13,0,0,0,.36,1.47,14.5,14.5,0,0,0,.75,1.7l-.34.47h0c-.18.23-.36.47-.57.71a20.52,20.52,0,0,0-1.71,2.15.57.57,0,0,0,.16.78,1.42,1.42,0,0,0,.89.15,4.22,4.22,0,0,0,1.34-.31,4.55,4.55,0,0,0,1.15-.6,2.59,2.59,0,0,0,1.1-2.27,4.63,4.63,0,0,0-.42-1.61l.2-.28a30.59,30.59,0,0,0,2-3.44,11.13,11.13,0,0,0,.36,1.47,9.56,9.56,0,0,0,.64,1.46,6.29,6.29,0,0,0-1.94,2.51c-.42,1.21-.09,1.76.52,1.88a1.86,1.86,0,0,0,1-.2,4.36,4.36,0,0,0,1.23-.63,2.76,2.76,0,0,0,1.35-2.25,4.42,4.42,0,0,0-.3-1.33,6.91,6.91,0,0,1,3.53-.4c3.17.37,3.79,2.35,3.67,3.18a2.1,2.1,0,0,1-1,1.42c-.22.14-.29.19-.27.29s.13.14.32.11a2.47,2.47,0,0,0,1.72-2.2C170.48,146.49,168.62,144.36,165.32,144.38Zm-24.43,8.23c-1,1.15-2.51,1.58-3.15,1.21s-.41-2.08.88-3.29a17.05,17.05,0,0,1,2.47-1.84l.65-.4.08,0h0l.15-.1A4.54,4.54,0,0,1,140.89,152.61Zm7.65-5.2c-.36.89-1.13,3.17-1.59,3.05s-.65-1.84-.08-3.55a8,8,0,0,1,1.24-2.28c.57-.64,1.2-.85,1.36-.59S148.77,146.85,148.54,147.41Zm6.32,3c-.16.08-.3.13-.37.09s.07-.13.07-.13.79-.85,1.1-1.24l.62-.79v.09A2.63,2.63,0,0,1,154.86,150.43Zm4.87-1.11c-.12-.08-.1-.35.28-1.18a4.69,4.69,0,0,1,1.09-1.4,2,2,0,0,1-1.37,2.58Z"/><path class="cls-5" d="M220.92,143.9c0-2-2.55-4-6.45-5.15.9-4,.5-7.14-1.26-8.15a2.72,2.72,0,0,0-1.4-.35v1.41a2.66,2.66,0,0,1,.71.16c.85.49,1.22,2.34.93,4.73a18.54,18.54,0,0,1-.32,1.83,30.19,30.19,0,0,0-4-.68,32.29,32.29,0,0,0-2.6-3.12,16.33,16.33,0,0,1,5.3-2.93v-1.4h0c-1.73,0-4,1.23-6.28,3.37-2.28-2.13-4.55-3.35-6.27-3.35v1.39c1.29,0,3.21,1,5.25,2.91a29.53,29.53,0,0,0-2.58,3.12,29.89,29.89,0,0,0-4,.69,18.29,18.29,0,0,1-.33-1.81c-.29-2.39.07-4.25.92-4.74a1.3,1.3,0,0,1,.72-.17v-1.39h0a2.8,2.8,0,0,0-1.42.35c-1.76,1-2.15,4.17-1.24,8.14-3.89,1.2-6.43,3.12-6.43,5.14s2.55,4,6.45,5.16c-.9,4-.5,7.14,1.27,8.15a2.7,2.7,0,0,0,1.4.35c1.72,0,4-1.22,6.25-3.35,2.28,2.12,4.53,3.33,6.25,3.33a2.73,2.73,0,0,0,1.41-.35c1.76-1,2.15-4.17,1.25-8.14C218.39,147.86,220.92,145.93,220.92,143.9Zm-8.15-4.16c-.23.8-.51,1.64-.84,2.47-.25-.5-.52-1-.82-1.5s-.59-1-.9-1.46C211.1,139.38,212,139.54,212.77,139.74Zm-2.86,6.65c-.48.84-1,1.64-1.5,2.39q-1.4.12-2.82.12c-1,0-1.89,0-2.81-.12-.52-.74-1-1.53-1.51-2.37s-.91-1.65-1.3-2.49c.38-.83.82-1.67,1.29-2.49s1-1.64,1.5-2.38c.93-.09,1.88-.13,2.83-.13s1.88,0,2.81.12c.52.74,1,1.54,1.51,2.37s.9,1.65,1.3,2.49C210.81,144.74,210.38,145.57,209.91,146.39Zm2-.81a24.42,24.42,0,0,1,.86,2.48c-.81.2-1.68.37-2.57.5.31-.48.61-1,.9-1.48S211.68,146.08,211.93,145.58Zm-6.33,6.66c-.58-.6-1.16-1.27-1.74-2,.57,0,1.14,0,1.72,0s1.17,0,1.74,0C206.75,151,206.17,151.64,205.6,152.24ZM201,148.56c-.88-.13-1.74-.29-2.56-.49a25.84,25.84,0,0,1,.85-2.47q.38.75.81,1.5C200.35,147.6,200.65,148.09,201,148.56Zm4.62-13a25.17,25.17,0,0,1,1.73,2c-.56,0-1.13,0-1.71,0s-1.17,0-1.74,0A23.22,23.22,0,0,1,205.57,135.57ZM201,139.25c-.31.48-.62,1-.9,1.48s-.56,1-.81,1.49a26.25,26.25,0,0,1-.87-2.48C199.19,139.55,200.05,139.38,201,139.25Zm-5.66,7.81c-2.21-.94-3.64-2.17-3.64-3.16s1.43-2.22,3.64-3.16c.54-.23,1.13-.43,1.73-.63a30.82,30.82,0,0,0,1.41,3.81A30.24,30.24,0,0,0,197,147.7,17.14,17.14,0,0,1,195.29,147.06Zm3.36,8.93c-.84-.49-1.21-2.34-.93-4.73.07-.59.19-1.2.32-1.83a30.35,30.35,0,0,0,4,.68,30.9,30.9,0,0,0,2.6,3.12c-2,1.89-4,2.93-5.25,2.93A1.65,1.65,0,0,1,198.65,156Zm14.82-4.76c.29,2.39-.07,4.24-.91,4.73a1.33,1.33,0,0,1-.72.17c-1.29,0-3.21-1-5.25-2.91a28.55,28.55,0,0,0,2.58-3.12,28.47,28.47,0,0,0,4-.69A16.34,16.34,0,0,1,213.47,151.23Zm2.4-4.17a17.38,17.38,0,0,1-1.73.64,29.18,29.18,0,0,0-1.4-3.81,30.13,30.13,0,0,0,1.38-3.78c.62.19,1.21.4,1.76.63,2.21.95,3.64,2.18,3.64,3.16S218.08,146.13,215.87,147.06Z"/><circle class="cls-5" cx="205.58" cy="143.9" r="2.85"/><path class="cls-6" d="M271.45,139.72a2.43,2.43,0,0,0-.29-1.21,2.27,2.27,0,0,0-.87-.87l-9.73-5.59a2.39,2.39,0,0,0-2.58,0c-1.29.77-7.73,4.47-9.66,5.58a2.24,2.24,0,0,0-1.17,2.07V151a2.33,2.33,0,0,0,.29,1.19,2.26,2.26,0,0,0,.89.87c1.92,1.12,8.36,4.82,9.65,5.58a2.39,2.39,0,0,0,2.58,0l9.71-5.59a2.26,2.26,0,0,0,.89-.87,2.33,2.33,0,0,0,.29-1.19V139.72"/><path class="cls-7" d="M259.33,145.31l-11.89,6.85a2.26,2.26,0,0,0,.89.87c1.92,1.12,8.36,4.82,9.65,5.58a2.39,2.39,0,0,0,2.58,0l9.71-5.59a2.26,2.26,0,0,0,.89-.87Z"/><path class="cls-8" d="M271.45,139.72a2.43,2.43,0,0,0-.29-1.21l-11.83,6.8,11.83,6.85a2.55,2.55,0,0,0,.29-1.19V139.72"/><path class="cls-1" d="M266.34,142.75V144h1.29v-1.28h.64V144h1.27v.63h-1.27V146h1.27v.64h-1.27v1.28h-.64v-1.28h-1.29v1.28h-.63v-1.28h-1.28V146h1.28v-1.29h-1.28V144h1.28v-1.27Zm1.29,1.94h-1.29V146h1.29Z"/><path class="cls-1" d="M259.36,136.31a9,9,0,0,1,7.81,4.51v0l-3.94,2.26a4.47,4.47,0,0,0-3.82-2.22h-.05a4.5,4.5,0,1,0,3.92,6.71l0,0,3.93,2.27a9,9,0,0,1-7.73,4.52h-.1a9,9,0,0,1,0-18.06Z"/></svg>